# AST/ASF file generated using VICON BodyLanguage
# -----------------------------------------------
:version 1.10
:name VICON
:units
  mass 1.0
  length 0.45
  angle deg
:documentation
   .ast/.asf automatically generated from VICON data using
   VICON BodyBuilder and BodyLanguage model FoxedUp or BRILLIANT.MOD
:root
   order TX TY TZ RX RY RZ
   axis XYZ
   position 0 0 0  
   orientation 0 0 0 
:bonedata
  begin
     id 1 
     name lhipjoint
     direction 0.54267 -0.795011 0.271047 
     length 2.39899 
     axis 0 0 0  XYZ
  end
  begin
     id 2 
     name lfemur
     direction 0.34202 -0.939693 0  
     length 7.49701  
     axis 0 0 20  XYZ
    dof rx ry rz
    limits (-160.0 20.0)
           (-70.0 70.0)
           (-60.0 70.0)
  end
  begin
     id 3 
     name ltibia
     direction 0.34202 -0.939693 0   
     length 8.1668   
     axis 0 0 20   XYZ
    dof rx
    limits (-10.0 170.0)
  end
  begin
     id 4 
     name lfoot
     direction 0.0736283 -0.202292 0.976554   
     length 2.13544   
     axis -90 7.62852e-016 20   XYZ
    dof rx rz
    limits (-45.0 90.0)
           (-70.0 20.0)
  end
  begin
     id 5 
     name ltoes
     direction 1.53557e-011 -4.22024e-011 1   
     length 1.07411   
     axis -90 7.62852e-016 20   XYZ
    dof rx
    limits (-90.0 20.0)
  end
  begin
     id 6 
     name rhipjoint
     direction -0.538061 -0.797813 0.272002   
     length 2.39057  
     axis 0 0 0  XYZ 
  end
  begin
     id 7 
     name rfemur
     direction -0.34202 -0.939693 0   
     length 7.50152   
     axis 0 0 -20   XYZ
    dof rx ry rz
    limits (-160.0 20.0)
           (-70.0 70.0)
           (-70.0 60.0)
  end
  begin
     id 8 
     name rtibia
     direction -0.34202 -0.939693 0   
     length 8.05793   
     axis 0 0 -20   XYZ
    dof rx
    limits (-10.0 170.0)
 end
 begin
     id 9 
     name rfoot
     direction -0.0765195 -0.210236 0.974652   
     length 2.28698  
     axis -90 -7.62852e-016 -20   XYZ
    dof rx rz
    limits (-45.0 90.0)
           (-20.0 70.0)
  end
  begin
     id 10 
     name rtoes
     direction -1.53542e-011 -4.21847e-011 1   
     length 1.14762   
     axis -90 -7.62852e-016 -20   XYZ
    dof rx
    limits (-90.0 20.0)
  end
  begin
     id 11 
     name lowerback
     direction -0.0217239 0.996592 -0.0795765   
     length 2.08176   
     axis 0 0 0   XYZ
    dof rx ry rz
    limits (-20.0 45.0)
           (-30.0 30.0)
           (-30.0 30.0)
  end
  begin
     id 12 
     name upperback
     direction -0.00563773 0.999651 -0.0258155   
     length 2.08898   
     axis 0 0 0   XYZ
    dof rx ry rz
    limits (-20.0 45.0)
           (-30.0 30.0)
           (-30.0 30.0)
  end
  begin
     id 13 
     name thorax
     direction 0.0032706 0.999923 0.0119599   
     length 2.0968   
     axis 0 0 0   XYZ
    dof rx ry rz
    limits (-20.0 45.0)
           (-30.0 30.0)
           (-30.0 30.0)
  end
  begin
     id 14 
     name lowerneck
     direction -0.0285886 0.99568 0.0883427   
     length 1.81272   
     axis 0 0 0   XYZ
    dof rx ry rz
    limits (-20.0 45.0)
           (-30.0 30.0)
           (-30.0 30.0)
  end
  begin
     id 15 
     name upperneck
     direction 0.0807535 0.97985 -0.18268   
     length 1.82518   
     axis 0 0 0   XYZ
    dof rx ry rz
    limits (-20.0 45.0)
           (-30.0 30.0)
           (-30.0 30.0)
  end
  begin
     id 16
     name head
     direction 0.0236605 0.997053 -0.0729767  
     length 1.84443  
     axis 0 0 0   XYZ
    dof rx ry rz
    limits (-20.0 45.0)
           (-30.0 30.0)
           (-30.0 30.0)
  end
  begin
     id 17 
     name lclavicle
     direction 0.918986 0.39378 -0.0200683  
     length 3.27822  
     axis 0 0 0   XYZ
    dof ry rz
    limits (-20.0 10.0)
           (0.0 20.0)
  end
  begin
     id 18 
     name lhumerus
     direction 1 -4.4897e-011 2.09544e-027   
     length 5.5568   
     axis 180 -30 -90   XYZ
    dof rx ry rz
    limits (-60.0 90.0)
           (-90.0 90.0)
           (-90.0 90.0)
  end
  begin
     id 19
     name lradius
     direction 1 -4.48957e-011 -1.27696e-026   
     length 3.63979   
     axis 180 -30 -90   XYZ
    dof rx
    limits (-10.0 170.0)
  end
  begin
     id 20
     name lwrist
     direction 1 -4.49001e-011 -1.49001e-026   
     length 1.8199   
     axis 9.0955e-015 90 90   XYZ
    dof ry
    limits (-180.0 0.0)
 end
  begin
     id 21 
     name lhand
     direction 1 -4.48709e-011 -2.9758e-026   
     length 0.569419   
     axis 1.90115e-014 90 90   XYZ
    dof rx rz
    limits (-90.0 90.0)
           (-45.0 45.0)
  end
  begin
     id 22 
     name lfingers
     direction 1 -4.49175e-011 -5.96505e-026   
     length 0.45908   
     axis 3.80223e-014 90 90   XYZ
    dof rx
    limits (0.0 90.0)
  end
  begin
     id 23
     name lthumb
     direction 0.707107 -6.34864e-011 0.707107   
     length 0.65915   
     axis -90 45 -3.84942e-014   XYZ
    dof rx rz
    limits (-45.0 45.0)
           (-45.0 45.0)
  end
  begin
     id 24 
     name rclavicle
     direction -0.911913 0.396426 -0.106115   
     length 3.46301  
     axis 0 0 0   XYZ 
    dof ry rz
    limits (-10.0 20.0)
           (-20.0 0.0)
  end
  begin
     id 25 
     name rhumerus
     direction -1 -4.48965e-011 7.78516e-028  
     length 5.34339   
     axis 180 30 90   XYZ
    dof rx ry rz
    limits (-90.0 60.0)
           (-90.0 90.0)
           (-90.0 90.0)
  end
  begin
     id 26 
     name rradius
     direction -1 -4.48948e-011 -5.79823e-027   
     length 3.65101   
     axis 180 30 90   XYZ
    dof rx
    limits (-10.0 170.0)
  end
  begin
     id 27 
     name rwrist
     direction -1 -4.48995e-011 -1.48996e-026   
     length 1.8255   
     axis 9.0955e-015 -90 -90   XYZ
    dof ry
    limits (-180.0 0.0)
  end
  begin
     id 28
     name rhand
     direction -1 -4.48957e-011 -2.97937e-026   
     length 0.694249   
     axis 1.90115e-014 -90 -90   XYZ
    dof rx rz
    limits (-90.0 90.0)
           (-45.0 45.0)
  end
  begin
     id 29
     name rfingers
     direction -1 -4.4898e-011 -5.95943e-026   
     length 0.559721   
     axis 3.80223e-014 -90 -90   XYZ
    dof rx
    limits (0.0 90.0)
  end
  begin
     id 30
     name rthumb
     direction -0.707107 -6.34969e-011 0.707107   
     length 0.803651   
     axis -90 -45 3.84942e-014   XYZ
    dof rx rz
    limits (-45.0 45.0)
           (-45.0 45.0)
  end
:hierarchy
  begin
    root lhipjoint rhipjoint lowerback
    lhipjoint lfemur
    lfemur ltibia
    ltibia lfoot
    lfoot ltoes
    rhipjoint rfemur
    rfemur rtibia
    rtibia rfoot
    rfoot rtoes
    lowerback upperback
    upperback thorax
    thorax lowerneck lclavicle rclavicle
    lowerneck upperneck
    upperneck head
    lclavicle lhumerus
    lhumerus lradius
    lradius lwrist
    lwrist lhand lthumb
    lhand lfingers
    rclavicle rhumerus
    rhumerus rradius
    rradius rwrist
    rwrist rhand rthumb
    rhand rfingers
  end

#!OML:ASF H:\Terrain\Walking\May29\JustinRory\rory.ASF
:FULLY-SPECIFIED
:DEGREES
33
root 16.6841 16.152 -8.61665 0.641896 -17.2336 7.09489
lowerback 22.1388 -1.09521 4.48805
upperback 6.27176 -0.488324 0.410377
thorax -5.51843 -0.284459 -1.98719
lowerneck -9.92969 -2.81628 -1.4975
upperneck 19.2752 -2.63239 -5.10251
head 7.51604 -1.83948 -1.66661
rclavicle 5.1684e-014 -9.54166e-015
rhumerus 10.4973 -25.1153 -75.5197
rradius 84.3087
rwrist 10.5499
rhand -33.9186 49.7848
rfingers 7.12502
rthumb -7.101 19.9239
lclavicle 5.1684e-014 -9.54166e-015
lhumerus 19.1381 -60.5911 84.0521
lradius 85.293
lwrist -9.4626
lhand -44.9974 2.34647
lfingers 7.12502
lthumb -17.7812 31.5535
rfemur -48.2167 3.34348 14.9097
rtibia 94.9199
rfoot -8.54551 -2.07257
rtoes -5.22581
lfemur -38.3223 1.57746 -4.5211
ltibia 45.3288
lfoot -7.64213 -0.790073
ltoes -25.7493
34
root 16.8007 16.0657 -8.28549 -0.699363 -19.0667 7.44185
lowerback 23.3844 -0.955471 4.59592
upperback 6.17788 -0.210847 0.56002
thorax -6.238 -0.17141 -1.95688
lowerneck -9.50153 -2.56138 -1.43651
upperneck 19.6833 -2.18804 -5.67371
head 7.57517 -1.68186 -1.82402
rclavicle -2.38542e-014 9.54166e-015
rhumerus 11.7944 -23.7597 -75.332
rradius 82.9492
rwrist 10.9331
rhand -34.3371 48.9902
rfingers 7.12502
rthumb -7.50494 19.1434
lclavicle -2.38542e-014 9.54166e-015
lhumerus 15.0821 -58.4061 86.2466
lradius 86.3085
lwrist -8.95717
lhand -45.437 2.55791
lfingers 7.12502
lthumb -18.2041 31.7261
rfemur -49.1972 3.25709 14.016
rtibia 95.4719
rfoot -9.23615 -3.59789
rtoes -3.51833
lfemur -37.506 3.46557 -5.61311
ltibia 49.2534
lfoot -10.3353 -0.852128
ltoes -31.9825
35
root 16.8922 16.0023 -7.9622 -2.34005 -20.7227 8.41154
lowerback 24.6001 -0.756081 3.96696
upperback 6.23885 -0.0513087 0.5823
thorax -6.78094 -0.103354 -1.6171
lowerneck -9.37972 -2.28211 -1.17168
upperneck 20.1205 -1.69648 -6.41218
head 7.69893 -1.50743 -2.07417
rclavicle 1.59028e-014 -2.06736e-014
rhumerus 13.5879 -22.4378 -75.4592
rradius 81.5289
rwrist 11.6653
rhand -33.9111 48.3231
rfingers 7.12502
rthumb -7.09374 18.462
lclavicle 1.59028e-014 -2.06736e-014
lhumerus 11.9394 -56.1912 87.4559
lradius 87.2759
lwrist -8.28134
lhand -45.5963 3.0653
lfingers 7.12502
lthumb -18.3573 32.2191
rfemur -49.9019 3.27673 12.5837
rtibia 95.4271
rfoot -9.84988 -4.17538
rtoes -0.425634
lfemur -36.8204 4.84899 -6.94082
ltibia 52.2087
lfoot -11.3942 -2.27528
ltoes -22.8605
36
root 16.9499 15.9876 -7.65138 -3.84905 -22.143 9.71635
lowerback 25.548 -0.547456 2.78804
upperback 6.24982 -0.0425188 0.637936
thorax -7.25202 -0.0964116 -0.881423
lowerneck -9.32604 -1.95103 -0.793885
upperneck 20.5424 -1.07856 -7.49017
head 7.83696 -1.29918 -2.44762
rclavicle -1.66979e-014 3.81667e-014
rhumerus 15.5622 -20.8507 -75.6114
rradius 80.0499
rwrist 12.4467
rhand -33.2492 47.9858
rfingers 7.12502
rthumb -6.45482 18.1041
lclavicle -1.66979e-014 3.81667e-014
lhumerus 8.83307 -53.675 88.4559
lradius 88.2706
lwrist -7.68968
lhand -45.8911 3.0926
lfingers 7.12502
lthumb -18.6409 32.2194
rfemur -50.5171 3.41804 11.0427
rtibia 94.839
rfoot -10.7085 -4.28973
rtoes -0.42575
lfemur -35.7262 6.977 -8.72431
ltibia 54.82
lfoot -13.0287 -2.7825
ltoes -25.6938
37
root 16.9818 16.0251 -7.34166 -4.94515 -23.4921 10.0818
lowerback 26.7386 -0.467496 2.37761
upperback 6.06657 0.0143412 0.912108
thorax -8.05366 -0.0756122 -0.356315
lowerneck -8.90148 -1.62691 -0.613886
upperneck 20.7427 -0.534866 -8.18129
head 7.84322 -1.09414 -2.65741
rclavicle -3.02153e-014 1.90833e-014
rhumerus 17.0363 -19.0826 -75.6571
rradius 78.6432
rwrist 13.1871
rhand -32.7313 47.8428
rfingers 7.12502
rthumb -5.9548 17.9464
lclavicle -3.02153e-014 1.90833e-014
lhumerus 5.27575 -51.059 89.612
lradius 89.0712
lwrist -7.67193
lhand -46.4841 2.93149
lfingers 7.12502
lthumb -19.2113 32.0026
rfemur -50.5476 4.03487 10.7945
rtibia 93.5352
rfoot -11.3715 -4.58034
rtoes -4.71482
lfemur -34.4971 8.8476 -9.08665
ltibia 56.3562
lfoot -14.0129 -4.05848
ltoes -20.8076
38
root 17.0215 15.9529 -7.00732 -5.77416 -24.8899 10.0673
lowerback 27.1189 -0.305829 2.65093
upperback 6.42026 0.30122 1.09974
thorax -7.8389 0.0545086 -0.399332
lowerneck -8.82814 -1.50252 -0.506671
upperneck 20.6174 -0.354967 -8.38105
head 7.79458 -1.01579 -2.72183
rclavicle -7.15625e-015 -1.27222e-014
rhumerus 18.9194 -18.0346 -75.7995
rradius 77.2978
rwrist 13.7583
rhand -31.6871 47.5104
rfingers 7.12502
rthumb -4.9466 17.5881
lclavicle -7.15625e-015 -1.27222e-014
lhumerus 3.36349 -49.0614 89.2985
lradius 89.6891
lwrist -7.56312
lhand -46.6957 3.13397
lfingers 7.12502
lthumb -19.4147 32.1847
rfemur -51.0281 4.81516 10.948
rtibia 92.4907
rfoot -11.4696 -4.24585
rtoes -7.93467
lfemur -32.2262 11.3603 -9.29491
ltibia 57.5503
lfoot -15.9903 -5.53405
ltoes -21.9749
39
root 17.0554 15.9278 -6.67699 -6.85043 -26.0667 11.0041
lowerback 26.1849 0.0512246 2.80712
upperback 7.58222 0.680791 0.779826
thorax -6.06571 0.256428 -0.957537
lowerneck -9.40443 -1.63376 0.0667527
upperneck 20.1563 -0.584473 -8.66692
head 7.72871 -1.10454 -2.93102
rclavicle 1.35174e-014 -4.77083e-015
rhumerus 21.7391 -18.1939 -76.1366
rradius 75.8208
rwrist 13.9321
rhand -31.2192 46.8324
rfingers 7.12502
rthumb -4.49484 16.9001
lclavicle 1.35174e-014 -4.77083e-015
lhumerus 3.70839 -47.9676 87.0928
lradius 90.1175
lwrist -7.18107
lhand -46.7872 3.09165
lfingers 7.12502
lthumb -19.5027 32.1335
rfemur -51.2684 5.44034 10.186
rtibia 91.0046
rfoot -11.2838 -2.78773
rtoes -8.47769
lfemur -30.149 13.1668 -10.2294
ltibia 58.4477
lfoot -17.9638 -6.38975
ltoes -23.6512
40
root 17.1059 15.9246 -6.34326 -7.39376 -26.9531 11.9161
lowerback 26.0108 0.0970933 2.7906
upperback 7.62198 0.713022 0.651528
thorax -5.9332 0.273243 -1.09667
lowerneck -9.04441 -1.52179 0.485939
upperneck 20.1409 -0.378612 -9.37306
head 7.6616 -1.03441 -3.21297
rclavicle 1.11319e-014 -1.59028e-014
rhumerus 23.1189 -16.9954 -75.5234
rradius 74.3891
rwrist 13.7114
rhand -31.6817 46.0758
rfingers 7.12502
rthumb -4.94143 16.1534
lclavicle 1.11319e-014 -1.59028e-014
lhumerus 1.5184 -46.0179 86.8562
lradius 90.3178
lwrist -7.2361
lhand -47.0491 2.46781
lfingers 7.12502
lthumb -19.7545 31.484
rfemur -51.7864 5.77964 9.30973
rtibia 89.2057
rfoot -11.0483 -0.671744
rtoes -10.8764
lfemur -29.0208 14.2117 -11.3481
ltibia 59.3509
lfoot -19.4491 -6.85442
ltoes -22.5828
41
root 17.1542 15.9089 -6.03333 -6.90562 -27.5053 11.9529
lowerback 25.2794 -0.167645 3.50754
upperback 7.49459 0.533925 0.715655
thorax -5.70883 0.18935 -1.37941
lowerneck -8.73951 -1.39876 0.62998
upperneck 20.3359 -0.132086 -9.88954
head 7.68178 -0.954697 -3.38956
rclavicle -2.78299e-014 7.95139e-015
rhumerus 24.3767 -15.4255 -74.8617
rradius 72.9474
rwrist 13.427
rhand -32.0369 45.4839
rfingers 7.12502
rthumb -5.28436 15.5698
lclavicle -2.78299e-014 7.95139e-015
lhumerus -0.713094 -43.8649 86.5437
lradius 90.1907
lwrist -7.45068
lhand -47.3309 1.63087
lfingers 7.12502
lthumb -20.0254 30.6189
rfemur -52.7559 6.21228 9.26747
rtibia 87.0957
rfoot -10.3756 1.36956
rtoes -12.8822
lfemur -29.1685 15.28 -11.7909
ltibia 60.6087
lfoot -19.9931 -7.75712
ltoes -19.8788
42
root 17.1873 15.9067 -5.7252 -6.97211 -27.6947 11.864
lowerback 25.1818 -0.521855 4.31514
upperback 7.49794 0.279697 0.856472
thorax -5.65876 0.065445 -1.61283
lowerneck -8.44475 -1.30721 0.749664
upperneck 20.6538 0.0836614 -10.3958
head 7.74428 -0.893939 -3.56638
rclavicle 6.83819e-014 -1.27222e-014
rhumerus 25.3579 -14.1035 -74.2029
rradius 71.4033
rwrist 13.065
rhand -31.8767 44.6822
rfingers 7.12502
rthumb -5.12965 14.7643
lclavicle 6.83819e-014 -1.27222e-014
lhumerus -2.85824 -41.8157 86.2651
lradius 89.6649
lwrist -7.54085
lhand -47.4368 0.420493
lfingers 7.12502
lthumb -20.1272 29.3979
rfemur -52.5136 6.8427 9.37518
rtibia 84.7976
rfoot -9.89711 3.38521
rtoes -13.3316
lfemur -28.8396 16.1933 -11.9989
ltibia 62.1877
lfoot -20.1514 -8.53483
ltoes -19.882
43
root 17.2049 15.9089 -5.41385 -7.01949 -27.4882 11.962
lowerback 24.8323 -0.837685 4.93332
upperback 7.51862 0.0138629 0.995042
thorax -5.47156 -0.0589978 -1.73757
lowerneck -8.04519 -1.31661 0.673533
upperneck 20.8661 0.146576 -10.7185
head 7.74557 -0.897391 -3.65719
rclavicle 4.05521e-014 -6.04305e-014
rhumerus 26.1272 -13.148 -73.303
rradius 69.9409
rwrist 12.7334
rhand -31.757 43.9172
rfingers 7.12502
rthumb -5.01413 13.9965
lclavicle 4.05521e-014 -6.04305e-014
lhumerus -4.76966 -40.0371 85.9665
lradius 88.7239
lwrist -7.57303
lhand -47.1057 -0.150746
lfingers 7.12502
lthumb -19.8089 28.8598
rfemur -51.9607 7.35273 9.21318
rtibia 82.8164
rfoot -10.4299 5.47265
rtoes -13.104
lfemur -28.8822 16.9264 -12.3952
ltibia 64.2349
lfoot -19.3396 -9.54926
ltoes -19.5114
44
root 17.2033 15.9218 -5.11819 -7.0343 -26.8353 12.0351
lowerback 24.3928 -1.18002 5.41588
upperback 7.58995 -0.331029 1.12393
thorax -5.19307 -0.217459 -1.77605
lowerneck -7.72816 -1.4457 0.536911
upperneck 21.0567 -0.00989273 -10.7162
head 7.74124 -0.980363 -3.64742
rclavicle 3.97569e-015 -1.59028e-015
rhumerus 26.9101 -12.3814 -72.4357
rradius 68.6681
rwrist 12.5135
rhand -32.3151 43.5395
rfingers 7.12502
rthumb -5.55293 13.6322
lclavicle 3.97569e-015 -1.59028e-015
lhumerus -6.45035 -38.5166 85.5233
lradius 87.5776
lwrist -7.80594
lhand -46.5281 0.365671
lfingers 7.12502
lthumb -19.2535 29.4326
rfemur -50.9668 7.91405 8.91568
rtibia 81.3713
rfoot -10.5968 3.75679
rtoes -11.1806
lfemur -29.3475 17.4162 -12.7132
ltibia 66.7446
lfoot -17.3417 -10.3613
ltoes -19.5908
45
root 17.1843 15.9357 -4.84856 -6.54418 -26.1824 11.0745
lowerback 24.1122 -1.5792 6.44713
upperback 7.58634 -0.594073 1.54275
thorax -5.06851 -0.341783 -1.8352
lowerneck -7.59295 -1.62185 0.3986
upperneck 21.3934 -0.252769 -10.5272
head 7.81417 -1.09631 -3.58924
rclavicle -3.97569e-015 8.5875e-014
rhumerus 27.7265 -11.5932 -71.5431
rradius 67.4588
rwrist 12.2999
rhand -32.8156 42.9148
rfingers 7.12502
rthumb -6.03614 13.0208
lclavicle -3.97569e-015 8.5875e-014
lhumerus -8.09011 -36.9727 85.0337
lradius 86.3265
lwrist -7.87532
lhand -45.9303 0.600904
lfingers 7.12502
lthumb -18.6786 29.7241
rfemur -49.8871 9.23578 9.50469
rtibia 80.7031
rfoot -11.1059 0.762385
rtoes -11.4671
lfemur -30.4768 18.1672 -11.7977
ltibia 69.8192
lfoot -14.6478 -10.7848
ltoes -23.8758
46
root 17.152 15.9379 -4.59349 -5.90172 -25.4074 9.71615
lowerback 23.9543 -1.99841 7.51536
upperback 7.50143 -0.84757 2.21902
thorax -5.09315 -0.468986 -1.6341
lowerneck -7.46768 -1.78949 -0.0177679
upperneck 21.9703 -0.424715 -10.3428
head 7.9789 -1.20945 -3.48756
rclavicle -5.08889e-014 -6.52014e-014
rhumerus 28.2689 -10.6715 -70.2151
rradius 66.2562
rwrist 11.7901
rhand -32.7098 42.0479
rfingers 7.12502
rthumb -5.93405 12.151
lclavicle -5.08889e-014 -6.52014e-014
lhumerus -9.79027 -35.3312 84.7337
lradius 84.9157
lwrist -7.81423
lhand -45.9662 1.38622
lfingers 7.12502
lthumb -18.7131 30.5061
rfemur -48.823 10.8241 10.3712
rtibia 80.7825
rfoot -11.6598 -2.32199
rtoes -12.9744
lfemur -32.1208 18.9633 -10.2963
ltibia 73.2127
lfoot -10.8831 -12.0297
ltoes -26.4033
